<?xml version="1.0" encoding="utf-8"?>
<!-- Generator: Adobe Illustrator 22.1.0, SVG Export Plug-In . SVG Version: 6.00 Build 0)  -->
<svg version="1.1" id="Layer_1" xmlns="http://www.w3.org/2000/svg" xmlns:xlink="http://www.w3.org/1999/xlink" x="0px" y="0px"
	 viewBox="0 0 100.6 61.5" style="enable-background:new 0 0 100.6 61.5;" xml:space="preserve">
<style type="text/css">
	.st0{fill:#50B848;stroke:#FFFFFF;stroke-width:0.25;stroke-miterlimit:10;}
</style>
<g>
	<path class="st0" d="M99.6,55.6c-0.3-0.1,0.1-1.7,0-2c-0.1-0.3-0.5-1.5-0.1-1.5c0.4,0,0-0.9,0.5-0.9c-0.1-0.3-0.2-0.6-0.3-0.7
		c-0.3-0.2-1.1,0.2-1.4-0.6c-0.3-0.8,0-0.9-0.5-1.6c-0.5-0.7-0.7-1.3-1.3-1c-0.3,0.1-1.1,0.1-1.9,0.1c-0.9,0.8-2.8,1.4-3.4,1.1
		c-0.7-0.3-2.1,0.1-3.2,0.1s-1.4-0.8-2.2-0.7c-0.8,0.1-0.8-0.7-1.6-0.7c-0.8,0-0.2-0.4-2.7-0.7c-2.6-0.3-4.7,1-5.6,1.7
		c-0.8,0.7-3.7,0-4,0.2c-0.3,0.2,0.1,1-0.9,1.4c-1,0.4-3.1,0-3.9,0.3c-0.7,0.3-1,1.4-0.4,1.4c0.6-0.1,0.9,0.2,0.8,0.5
		c-0.2,0.3,0.5,1,0.2,1.4c-0.4,0.3-0.4,0.9,0.1,1.3c0.4,0.3,0.5,0.9,0,1c-0.5,0.1,0.9,0.7,0.9,0.9c0,0.3,1.2,0.4,1.2,0.7
		c0,0.3,0.4,0.4,0.9,0.3c0.6-0.2,0.8,0.6,1.1,1.2c0.4,0.5,2.4,0.2,2.4-0.4c0-0.6,0.6-0.8,1.5-0.7c0.9,0.1,2.1,1.3,2.5,1.5
		c0.4,0.2,1.3-0.3,1.9-0.3c0.6,0,1.4-0.9,1.7-1.1c0.3-0.2,0.9,0.6,1.4,0.4c0.5-0.3,1.1-0.6,1.4-0.4c0.3,0.2-0.8,1-0.5,1.5
		c0.1,0.2,0.1,0.4,0,0.6c1.1-0.2,1-0.9,1.1-1.3c0.1-0.4,0.4-0.7,0.7-0.4c0.4,0.3,0.9,0.4,1.7,0c0.8-0.4,0.9-0.6,1.2-0.2
		c0.3,0.4,0.9,0.1,2.1,0.1c1.2,0,1.4-0.8,2.5-0.7c1.1,0.1,2-0.3,2-0.3l0.7,0.2c0.3-0.3,0.3-0.6,0.8-0.6c0.9-0.1,1.2,0.5,1.6,0.3
		c0.4-0.2,1.8,1.3,1.9,0.3C100.6,56.8,99.9,55.6,99.6,55.6z M69.1,48.6c0.7-0.2,2.1,0.1,2.5-0.2c0.4-0.3-0.9-0.7-1.4-1.1
		c-0.3-0.2-0.4-0.6-0.5-1c-0.2,0.1-0.5,0.3-0.7,0.1c-0.5-0.2-1.7-0.1-1.9,0c-0.2,0.1,0.2,0.8,0.2,1.2c0,0.4-0.5,0.6-0.5,0.9
		c0,0.2-0.2,0.4-0.4,0.6c0.4,0.3,0.7,0.5,1.1,0.5C68.1,49.6,68.4,48.8,69.1,48.6z"/>
	<path class="st0" d="M45.5,18.5c0.1,0.3,0.2,1.5,0,1.9c-0.3,0.4-0.2,0.6,0.1,0.7c0.3,0.2,0.4,0.6,0.4,0.9s0.2,0.3,0.2,1
		c0,0.7,0.2,1.2,0.4,1.5c0.2,0.2,0.2,0.6,0.1,0.8c0.3,0.3,0.7,0.5,1.1,0.6c0.8,0.3,1.2,0.5,1.2,0.8c0.1,0.3,0.8,0.8,1,0.4
		c0.2-0.4,0.7-0.2,1-0.2c0.4,0,0.4,0.4,0.5,0.7c0.1,0.2,0.9,0.1,1.2,0.3c0.3,0.2,0.4,0.8,0.8,1.1c0.4,0.2,0.8-0.3,1.1-0.1
		c0.3,0.2,1.1,0.4,1.6,0.2c0.5-0.2,0.8,0.2,1.4,0.1c0.6-0.1,1.4,0.2,1.6,0.4c0.1,0.1,0.6,0.2,1.1,0.3c0.1-0.2-0.1-1-0.1-1.2
		c0-0.2,1.5-1.5,1.7-1.8c0.2-0.3,0.6-0.3,0.8-0.7c0.2-0.4-0.6-1.5-0.7-1.8c-0.2-0.2-0.2-1.2-0.1-1.6c0.1-0.4-0.6-0.7-0.6-0.9
		c0-0.3,0.7-0.8,1.1-0.9c0.4-0.2,0.2-1.3-0.1-1.6c-0.3-0.3-0.5-0.8-0.3-1.4c0.2-0.6-1.2-1-1.4-1c0,0-0.1,0-0.1-0.1
		c-1.3,0.2-4.5-0.1-4.8-0.2c-0.2-0.1-0.6-0.2-0.9-0.3c-0.2,0.3-0.5,0.5-1,0.5c-0.8,0-0.8-0.8-0.9-1.1c0-0.4-3.2,0.3-4,1.1
		c-0.8,0.8-2.8,0.5-2.8,1c0,0.3-0.3,0.5-0.5,0.4C45.4,18.4,45.4,18.5,45.5,18.5z"/>
	<path class="st0" d="M52.6,44.7c-0.1-0.4,1.1-2,1.4-2c0.2,0,0.3-1.6,0.2-2.4c-0.9-0.6-1.7-0.8-1.7-0.8s-2.4-0.1-2.8-0.3
		c-0.4-0.2-0.8,0.5-1.2,0.2c-0.4-0.3-0.9,0.1-0.8,0.5c0.1,0.4,0.8,0.6,0.8,1.3s1.5,1.5,1.5,1.8c0,0.2,0.9,0.8,1.5,1.7
		c0.3,0.2,0.6,0.4,0.9,0.7C52.6,45,52.7,44.8,52.6,44.7z"/>
	<path class="st0" d="M50.1,42.9c0-0.3-1.5-1.2-1.5-1.8s-0.8-0.9-0.8-1.3c-0.1-0.4,0.4-0.8,0.8-0.5c0.4,0.3,0.8-0.4,1.2-0.2
		c0.4,0.2,2.8,0.3,2.8,0.3s0.8,0.2,1.7,0.8c0-0.2,0-0.3-0.1-0.4c-0.2-0.5,0-1.1-0.6-1.3c-0.3-0.1-0.4-0.6-0.5-1.1
		c-0.3,0.1-0.5,0.2-0.6,0.2c-0.5,0.1-1.5,0.1-1.9-0.4c-0.3-0.4-1.1-0.9-1.5-1.1c-0.2,0.1-0.8,0.7-1.1,0.7c-0.3,0-0.1,0.9-0.4,0.9
		c-0.3,0-0.6,0.6-0.7,0.8c-0.1,0.2-0.8-0.2-1.1,0c-0.2,0.1-0.9,0.2-1.3,0.2c0.1,0.4,0,0.8,0.3,0.8c0.5,0,1.4-0.1,1.4,0.6
		c0,0.7,1.2,2.1,1.6,2.6c0.4,0.5,1.4,0.4,1.5,0.8c0.1,0.4,0.8,0.8,1.6,0.8c0.2,0,0.5,0.1,0.8,0.3C51.1,43.7,50.1,43.1,50.1,42.9z"/>
	<path class="st0" d="M56.2,50.7c0.4-0.1,0.2-0.4,0.4-0.7c0.3-0.3,0.6-0.9,0.7-1.1c0,0,0,0,0-0.1c-0.6-0.4-0.9-0.7-1.1-1.1
		c-0.1-0.4,0-1.3,0.2-1.9c-0.3-0.2-1.3-0.9-1.6-0.9c-0.3,0-0.8,0.7-0.9,1.3c0.7,0.4,1,0.6,0.5,1.1c-0.5,0.5-0.6,2.3-0.1,2.7
		c0.5,0.4,0.7,1.3,1.2,1.6C55.8,51.3,55.9,50.8,56.2,50.7z"/>
	<path class="st0" d="M48.4,30.7c-0.5-0.5-1.7-0.5-1.7-0.5s-0.1,0.5-0.3,0.8c-0.2,0.3-1,0.2-1.6,0.1c-0.2,0.2-0.9,0.4-1,0.7
		c-0.1,0.4-1,0.2-0.7,1.1c0.3,1-0.4,0.7-0.7,0.5c-0.3-0.1-1.5,0-1.9,0.4c-0.3,0.3-0.8,0.2-1.1,0.1c-0.3-0.2-0.9-0.2-1.1,0.2
		c-0.2,0.4-0.7-0.3-1.1-0.3c-0.4,0-0.2,0.8-0.2,1c0,0.2,0.6,0.7,0.9,0.5c0.4-0.2,0.8,0,1.1,0.2c0.3,0.2,0.9-0.2,1.1-0.4
		c0.2-0.2,1.3-0.2,1.5-0.2c0.1,0,0.2,0.7,0.4,0.8c0.2,0.1,1,0.2,1.7,0.2c0.7,0,1.7,0.4,2,0.4s0.9-0.6,1.6-0.6c0.7,0,1.1-0.4,1.3-0.4
		c0,0,0,0,0,0c0.1-0.2,0.1-0.4,0.3-0.4c0.3,0,0.1-0.6,0.3-0.8c0.2-0.3-0.2-0.8,0.2-0.7c0.4,0,0.8,0.1,0.8-0.5c0-0.2,0.1-0.3,0.2-0.5
		c-0.4-0.6-0.7-1.5-0.7-1.5S48.9,31.2,48.4,30.7z"/>
	<path class="st0" d="M60.2,32.2c-0.1,0-0.3-0.1-0.4-0.3c-0.5-0.1-1-0.3-1.2-0.4c-0.3-0.3-1.5-0.5-1.7-0.5c-0.2-0.1-1.3,1.1-1.7,1.1
		c-0.4,0-1.9,0.2-1.9,0.6c0,0.4-1.9,0.5-2.5,0c-0.1-0.1-0.2-0.2-0.2-0.3c-0.1,0.1-0.2,0.3-0.2,0.5c0,0.6-0.4,0.5-0.8,0.5
		c-0.4,0,0,0.5-0.2,0.7c-0.2,0.3,0,0.8-0.3,0.8c-0.2,0-0.2,0.2-0.3,0.4c0.1,0.1,0.4,0.7,0.4,0.7s0,0,0,0c0.4,0.2,1.3,0.8,1.5,1.1
		c0.4,0.5,1.4,0.5,1.9,0.4c0.5-0.1,2.5-0.8,2.5-0.8s0.5,0.2,0.8,0.2c0.1,0,0.3,0,0.5,0.1c0.1-0.2,0.6-0.3,1.1-0.8
		c0.6-0.6,1.4-2.6,1.7-2.8c0.2-0.2,0.9-0.5,1.2-0.8C60.6,32.6,60.5,32.3,60.2,32.2z"/>
	<path class="st0" d="M52.7,28c-0.3-0.2-1.2-0.1-1.2-0.3C51.4,27.4,51.3,27,51,27c-0.4,0-0.8-0.2-1,0.2c-0.2,0.4-0.9-0.1-1-0.4
		c-0.1-0.3-0.4-0.5-1.2-0.8c-0.3-0.1-0.7-0.4-1.1-0.6c0,0.1-0.1,0.1-0.1,0.2c-0.2,0.2-0.7-0.2-1,0c-0.2,0.2-1.1,0.3-1.5,0.7
		c-0.4,0.4-1.4,0.6-1.9,0.7c-0.5,0.1-0.1,0.6,0.1,1c0.2,0.4,0.2,1.3,0.6,1.5c0.4,0.3,1.8,1.1,1.9,1.4c0,0.1,0,0.1,0,0.1
		c0.6,0.2,1.4,0.2,1.6-0.1c0.2-0.3,0.3-0.8,0.3-0.8s1.2,0,1.7,0.5c0.5,0.5,1.4,0.2,1.4,0.2s0,0.2,0.1,0.4c0.1-0.3,0.3-0.6,0.5-0.6
		c0.5-0.1,1.2-0.1,1.7-0.9c0.3-0.4,0.7-0.7,1.1-0.9C53,28.6,52.9,28.1,52.7,28z"/>
	<path class="st0" d="M57.6,29.3c-0.6,0.1-0.9-0.3-1.4-0.1c-0.5,0.2-1.3,0-1.6-0.2c-0.3-0.2-0.7,0.4-1.1,0.1
		c-0.1-0.1-0.2-0.1-0.2-0.2c-0.4,0.2-0.8,0.5-1.1,0.9c-0.5,0.7-1.2,0.8-1.7,0.9c-0.2,0-0.4,0.3-0.5,0.6c0.2,0.4,0.5,1.1,0.8,1.4
		c0.5,0.5,2.5,0.4,2.5,0c0-0.4,1.6-0.6,1.9-0.6c0.4,0,1.5-1.2,1.7-1.1c0.2,0.1,1.4,0.2,1.7,0.5c0.1,0.1,0.6,0.3,1.2,0.4
		c-0.2-0.2-0.4-0.4-0.4-0.6c0-0.3,0.6-1.2,0.8-1.3c0,0,0,0,0-0.1c-0.5-0.1-1-0.2-1.1-0.3C59,29.5,58.2,29.2,57.6,29.3z"/>
	<path class="st0" d="M6.2,55.3c0.7-0.1-0.2-0.7-0.4-0.9c-0.2-0.2,0.1-1,0.5-1c0.4,0,0-0.5-0.5-1c-0.5-0.5,0-0.7,0.5-0.7
		c0.5,0-0.1-0.8,0.3-1.3c0.5-0.5-0.1-1.3-0.1-1.7c0-0.4,0.7-0.5,1.2-1.1c0.5-0.5-0.5-0.3-0.5-0.7c0-0.4-0.7-0.5-1.1-0.2
		c-0.5,0.3-0.3,0-0.7,0c-0.4,0-1.1,0.1-1.1-0.3c0-0.4-0.3-0.5-0.7-0.1c-0.1,0.1-0.3,0.2-0.5,0.2c0,0.5-0.1,1,0,1.2
		c0.4,0.6-0.4,3.6-1.1,4.4c-0.7,0.8,0,1,0.7,1.6c0.7,0.6,0.2,2.6,0.2,3.1c0,0.5,0.7,0.4,1.4,0.4c0.5,0,1-0.2,1.5-0.3
		c-0.1-0.2-0.3-0.5-0.3-0.6C5.5,56,5.5,55.4,6.2,55.3z"/>
	<path class="st0" d="M27.5,24.4c0.3-0.3,0.9-0.2,1.2,0.2c0.3,0.3,0.8,0.4,1.3,0.9c0.1,0.1,0.3,0.2,0.4,0.3c0-0.3,0.1-1,0.2-1.4
		c0.2-0.4-0.2-0.9,0.1-0.9c0.3,0,1,0,1-0.5c0-0.5,0.2-0.3,0.4-0.6c0.2-0.3-0.5-0.8-0.6-1c-0.1-0.2,0.5-0.2,0.9-0.9
		c0.2-0.2,0.1-0.7-0.1-1.2c-0.1,0.2-0.2,0.3-0.5,0.2c-0.4-0.2-1-0.1-1.8,0.1c-0.8,0.2-1.1,0.9-0.8,1.3c0.3,0.3-0.8,0.5-0.9,0.1
		c-0.1-0.4-0.9-0.1-0.8,0.4c0.1,0.6-0.9,0.8-0.8,1.5c0.1,0.7-0.9,1.4-1.5,1.7c-0.1,0.1-0.2,0.1-0.3,0.2c0.3,0.1,0.5,0.2,0.7,0.2
		C26.3,25,27.2,24.7,27.5,24.4z"/>
	<path class="st0" d="M30.6,27.6c-0.4,0.2-0.7,0.6-0.6,1.6c0.4,0,0.9,0,1.2,0.1c-0.1-1-0.5-1.3-0.6-1.5
		C30.6,27.7,30.6,27.6,30.6,27.6z"/>
	<path class="st0" d="M24.1,25.5c0,0.3,0.5,1,0.7,0.7c0.2-0.3,0.6,0.4,0.9,0.6c0.4,0.2,1.1,0.4,1.1,0.7c0,0.2,0.2,0.8,0.5,0.6
		c0.4-0.2,0.8-0.7,0.8-0.4c0,0.3,0.1,0.9,0.5,0.9c0.4-0.1,0.5,0.7,0.9,0.6c0.1,0,0.2,0,0.3,0c0-0.9,0.3-1.4,0.6-1.6
		c0.1-0.2,0.3-0.3,0.4-0.5c0.1-0.3-0.5-0.8-0.5-1.1c0,0,0,0,0-0.1c-0.1-0.1-0.3-0.2-0.4-0.3c-0.5-0.5-1-0.6-1.3-0.9
		c-0.3-0.3-0.9-0.5-1.2-0.2c-0.3,0.3-1.2,0.6-1.7,0.6c-0.1,0-0.4-0.1-0.7-0.2c-0.4,0.2-0.8,0.4-1.2,0.5C24,25.4,24.1,25.3,24.1,25.5
		z"/>
	<path class="st0" d="M71.1,38.9c-0.4-0.1-0.9-0.2-0.7-0.4c0,0,0,0,0-0.1c-0.5-0.4-0.6-1.7-0.3-2.1c0.4-0.4-0.7-2-1.2-2.6
		c-0.2-0.3-0.7-1.2-1.2-2.1c-0.4,0.1-0.8,0.3-0.9,0.4c-0.2,0.3-0.7,0.5-1,0.5c-0.3,0-0.7-0.2-0.9,0.1c-0.3,0.3-0.7,0.4-0.8,0.2
		c-0.2-0.2-0.7-0.3-1.1-0.3c-0.4,0-1.6-0.3-1.8-0.3c-0.2,0-0.4,0-0.7,0.1c0.1,0.1,0,0.3-0.2,0.4c-0.3,0.2-1,0.6-1.2,0.8
		c-0.2,0.2-1.1,2.2-1.7,2.8c-0.6,0.6-1.1,0.7-1.1,0.9c0,0.2,0.7,0.7,0.7,1.1c0,0.3,0.2,0.7,0.6,0.7c0.4,0,0,1.1,0.2,1.1
		c0.3,0.1,2,0.2,2,0.6c0,0.3,0.2,0.6,0.1,0.8c0.5,0.1,0.9,0.8,1,0.7c0.2-0.1,1.7,0.3,2,0.2c0.3-0.1,1.5,0,2,0.1
		c0.4,0.1,0.9-0.2,1.3-0.5c0.4-0.4,1.7-0.4,2.2-0.4c0.4,0.1,1.3,0.2,1.5,0.4c0.1,0.1,0.6,0.4,1.1,0.5c0.1-0.3,0-0.6,0-1
		c0-0.6,0.4-1.4,0.9-1.5c0.6-0.1,1-0.1,0.9-1c0,0,0-0.1,0-0.1c-0.3-0.2-0.6-0.5-0.6-0.5C71.9,38.5,71.3,38.9,71.1,38.9z"/>
	<path class="st0" d="M71.9,33.2c-0.2-0.7-0.9-1-1.3-1c-0.4,0-1-0.9-1.5-0.8c-0.2,0-0.8,0.2-1.3,0.3c0.5,0.9,1,1.8,1.2,2.1
		c0.5,0.6,1.6,2.2,1.2,2.6c-0.3,0.3-0.2,1.7,0.3,2.1c0.2-0.3,1-1.3,1-1.6c0-0.3,0.1-1,0.7-0.8c0.7,0.2,1.2,0.4,1.2,0.2
		c0-0.2-0.2-0.9-0.4-1.2C72.7,34.7,72.1,33.9,71.9,33.2z"/>
	<path class="st0" d="M68.3,41.5c-0.4-0.1-1.8,0-2.2,0.4c-0.4,0.4-0.9,0.6-1.3,0.5c-0.4-0.1-1.7-0.1-2-0.1c-0.3,0.1-1.7-0.3-2-0.2
		c-0.2,0-0.6-0.6-1-0.7c0,0.1-0.1,0.1-0.1,0.2c-0.4,0.2-0.4,0.9,0,1.3c0.4,0.4,0.9,1.2,0.6,1.2c-0.4,0-0.7,0.5-0.6,0.7
		c0,0.2-0.1,0.8,0,0.9c0.1,0.1,1,0.9,1,1.2c0,0.2,0.4,0.3,0.4,0.5c0.7,0,2.1-0.1,2.5,0c0.4,0.2,2,0.3,2,0.3c0.4,0,0.8-0.2,0.7-0.4
		c-0.1-0.2,0.5-0.4,0.9-0.4c-0.1-0.3-0.1-0.5,0-0.5c0.2-0.1,1.4-0.2,1.9,0c0.2,0.1,0.5,0,0.7-0.1c-0.1-0.2-0.1-0.4-0.3-0.4
		c-0.3-0.1-0.8-1.3-0.4-1.4c0.4-0.1,0.9-1.4,1.5-1.6c0.2-0.1,0.3-0.2,0.4-0.4c-0.5-0.2-1-0.4-1.1-0.5C69.6,41.7,68.8,41.6,68.3,41.5
		z"/>
	<path class="st0" d="M57.3,48.9L57.3,48.9C57.3,48.9,57.3,48.9,57.3,48.9C57.4,48.9,57.4,48.9,57.3,48.9c0.1,0,0.1,0,0.2-0.1
		c0,0,0,0,0,0c0.2,0,0.4,0,0.6,0c0,0,0,0,0,0c0,0,0.1,0,0.1,0c0,0,0,0,0.1,0c0.1,0,0.1,0,0.2,0c0.5-0.1,0.6-0.7,0.9-0.5
		c0.2,0.1,1.5-0.5,1.7-0.8c0,0,0-0.1,0-0.1c0-0.2-0.3-0.3-0.4-0.5c0-0.2-0.9-1.1-1-1.2c0,0,0-0.1,0-0.1c0,0,0,0,0,0
		c0-0.1,0-0.1,0-0.2c-1.3,0.2-3.2,0.6-3.2,0.6s0,0-0.1-0.1c-0.2,0.6-0.3,1.5-0.2,1.9C56.4,48.2,56.7,48.5,57.3,48.9z"/>
	<path class="st0" d="M88.5,33.7c0.3,0,1.1-1,1.4-1c0.3,0,1.5,0.2,1.5,0s0.4-0.9,0.3-1.1c-0.1-0.2-0.5-0.5-0.4-0.7
		c0.1-0.2,0.7-0.2,0.7-0.4c0-0.2-0.4-0.4-0.4-0.5c0-0.2,0.6-0.4,0.5-0.8c0-0.3-0.5-0.4-1.1-0.7c-0.5-0.3-1.1-0.2-1.5-0.4
		c-0.5-0.2-1.5-0.1-1.5-0.2c0-0.2-0.7-0.7-0.8-1c-0.2-0.3-0.7-0.1-1,0.1c-0.3,0.2-0.6,0.3-0.9,0.1c-0.3-0.2-0.6-0.5-0.9-0.4
		c-0.3,0.1-0.8,0-0.7-0.4c0.1-0.4-0.5-1.3-0.8-1.4c-0.3-0.1-1.1,0.1-1.3-0.3c-0.2-0.4-0.6-0.7-0.4-1c0.2-0.3,0-1.1-0.2-1.4
		c-0.2-0.3-1.2-0.3-1.5-0.2c-0.3,0.1-0.9-0.1-1.2,0c-0.3,0.2-0.4,0.4-0.9,0.4c-0.2,0-0.4,0-0.5-0.2c-0.4,0.2-1.2,0.2-1.2,0.2
		s-1.1,0.9-1.1,1.2c0,0.3-0.1,0.9-0.3,0.6c-0.3-0.3-1.4-0.3-1.7-0.1c-0.3,0.2-0.7-0.7-1.2-0.4c-0.5,0.3-1.1-0.4-1.2-0.1
		c-0.1,0.3-0.8,0.1-1.2-0.2c-0.5-0.2-1.4,0.1-1.7-0.3C66.8,23,64.7,23,64,23c-0.7,0-0.9,0.4-1.2,0.7c-0.3,0.3-0.6,0.2-1,0.2
		c0,0.3,0.1,0.5,0.2,0.6c0.2,0.2,0.9,1.4,0.7,1.8c-0.2,0.4-0.6,0.4-0.8,0.7c-0.2,0.3-1.7,1.5-1.7,1.8c0,0.2,0.2,1.1,0,1.3
		c-0.2,0.2-0.8,1-0.8,1.3c0,0.3,0.4,0.8,0.8,0.9c0.2,0.1,0.3,0.1,0.3,0.2c0.3,0,0.5-0.1,0.7-0.1c0.3,0,1.5,0.3,1.8,0.3
		c0.4,0,0.9,0.2,1.1,0.3c0.2,0.2,0.5,0.1,0.8-0.2c0.3-0.3,0.6-0.1,0.9-0.1c0.3,0,0.9-0.3,1-0.5c0.2-0.3,1.8-0.7,2.2-0.8
		c0.4-0.1,1.1,0.8,1.5,0.8c0.4,0,1.1,0.3,1.3,1c0.2,0.7,0.9,1.6,1.1,1.8c0.3,0.3,0.4,1,0.4,1.2c0,0.2-0.6-0.1-1.2-0.2
		c-0.7-0.2-0.7,0.5-0.7,0.8c0,0.3-0.9,1.5-1.1,1.7c-0.2,0.2,0.3,0.4,0.7,0.4c0.2,0,0.8-0.4,1-0.4c0.1,0,0.4,0.2,0.6,0.5
		c-0.1-0.8,0.1-0.8,0.9-1.4c0.8-0.6,0.9-1.7,1.6-1.8c0.7-0.1,1-0.5,2-0.3c1,0.2-0.5,0.8,0.2,1.2c0.7,0.4,2.9-0.1,3,0.4
		c0.1,0.5-2.5,1.1-2.4,1.4c0.1,0.3,1.4,0.5,1.8,0.8c0.5,0.3-0.1,1.1,0.1,1.4c0.2,0.3,0.9,0.1,1.5-0.4c0.6-0.4,1-0.3,1.8-0.8
		c0.7-0.5,2.3-0.1,2.4-0.4c0.2-0.3-0.4-0.6-1.8-0.5c-1.4,0.1-1.5-1.2-1.5-1.5c0-0.3,1.5-1.4,2.3-1.5c0.8-0.1,1.5-0.3,2.3-0.7
		c0.3-0.2,0.9-0.3,1.5-0.4C88.3,34.2,88.2,33.8,88.5,33.7z"/>
	<path class="st0" d="M77.4,18.3c-0.3-0.1-0.5-0.8-1.1-1c-0.5-0.2-0.4-0.9-0.9-1.1c-0.4-0.3-0.2-0.9-0.2-1.3c0-0.4,0.1-1.1-0.2-1.3
		c-0.2-0.1-1.3-0.7-1.7-0.5c-0.4,0.2-0.8,0.4-1,0c-0.2-0.4-0.5-0.6-0.9-0.4c-0.4,0.1-0.7-0.1-1-0.3c0,0-0.1-0.1-0.1-0.1
		c-0.2,0-0.4,0.1-0.6,0.2c-0.3,0.2-0.3,0.7-0.7,0.7c-0.4,0-0.8-0.2-1.2,0.2c-0.4,0.3-0.5,0.7-0.5,1c0.1,0.3,0.1,0.7-0.2,0.7
		c-0.3,0-0.3,0.4-0.6,0.5c-0.3,0.1-0.9,0.6-0.9,0.9c-0.1,0.3-0.1,0.9-0.3,0.9c-0.2,0-1,0.1-1.2,0.4c-0.2,0.3-0.5,0.5-0.9,0.4
		c-0.2-0.1-0.8-0.1-1.3-0.1c0,0.1,0,0.1,0,0.2c-0.2,0.6,0,1.1,0.3,1.4c0.3,0.3,0.4,1.4,0.1,1.6c-0.4,0.2-1.1,0.7-1.1,0.9
		c0,0.3,0.7,0.5,0.6,0.9c-0.1,0.2-0.1,0.6,0,1c0.3,0,0.7,0.1,1-0.2c0.3-0.3,0.5-0.7,1.2-0.7c0.7,0,2.8,0,3.1,0.4
		c0.3,0.4,1.2,0.1,1.7,0.3c0.5,0.2,1.2,0.4,1.2,0.2c0.1-0.3,0.7,0.4,1.2,0.1c0.5-0.3,0.9,0.5,1.2,0.4c0.3-0.2,1.4-0.2,1.7,0.1
		c0.3,0.3,0.3-0.3,0.3-0.6c0-0.3,1.1-1.2,1.1-1.2s0.7,0,1.2-0.2c-0.1-0.1-0.2-0.4-0.3-0.8c-0.2-0.9-0.5-1.4-0.3-1.7
		c0.2-0.3,0.9,0.4,1.3,0.2c0.4-0.2,1-0.5,0.9-0.9C78.3,18.8,77.7,18.4,77.4,18.3z"/>
	<path class="st0" d="M61.4,11.7c0.5,0,1.7,0.2,2.3,0c0.7-0.2,0.7,0.5,1.1,0.4c0.4-0.1,1.2,0.5,1.7,0.9c0.3,0.2,0.6,0.4,0.9,0.6
		c0.1-0.1,0.2-0.3,0.4-0.4c0.4-0.3,0.9-0.2,1.2-0.2c0.4,0,0.4-0.4,0.7-0.7c0.2-0.1,0.4-0.2,0.6-0.2c-0.1-0.3-0.2-0.9-0.4-1.1
		c-0.3-0.3-0.7-0.8-0.6-1.1c0.1-0.3,0.1-0.7-0.2-1c-0.1-0.1-0.3-0.3-0.3-0.5c-0.7-0.1-1.6-0.2-1.8-0.1c-0.3,0.1-1.6-0.9-1.8-1.1
		c-0.1-0.1-1.1-0.1-2,0c-0.5,0.6-0.1,1-0.2,1.8c0,0.9-1,0.7-1.5,0.7c-0.5,0-1.4-1.5-1.6-1.9c-0.3-0.4-1.1,0.4-1.8,0.8
		c-0.6,0.4-0.3,1.1-0.7,1.5c-0.4,0.4-0.7,0.9-0.3,1.7c0,0,0,0.1,0,0.1c0.5,0,1.1-0.1,1.5-0.4C59.4,11.3,60.9,11.7,61.4,11.7z"/>
	<path class="st0" d="M58.4,14.7c0.2,0.3,0.9,0.5,1.1,0.4c0.2-0.1,1,0.3,1,0.6c0,0.3-0.2,1.3,0,1.3c0.2,0,1.4,0.4,1.4,0.9
		c0.5,0,1.1,0,1.3,0.1c0.4,0.1,0.7-0.2,0.9-0.4c0.2-0.3,1-0.4,1.2-0.4c0.2,0,0.2-0.6,0.3-0.9c0.1-0.3,0.6-0.8,0.9-0.9
		c0.3-0.1,0.3-0.5,0.6-0.5c0.3,0,0.3-0.4,0.2-0.7c0-0.2,0-0.4,0.1-0.6c-0.3-0.2-0.7-0.4-0.9-0.6c-0.5-0.4-1.3-1-1.7-0.9
		c-0.4,0.1-0.4-0.7-1.1-0.4c-0.7,0.2-1.8,0-2.3,0c-0.5,0-2.1-0.4-2.7,0c-0.3,0.2-0.9,0.3-1.5,0.4c0.4,0.8,0.2,1.5-0.2,2
		c-0.3,0.3-0.1,0.4,0.1,0.5C57.7,14.5,58.2,14.5,58.4,14.7z"/>
	<path class="st0" d="M38,35.2c-0.4,0.2-0.9-0.3-0.9-0.5c0-0.1-0.1-0.5,0-0.8c-0.3-0.2-0.7-0.4-1.1-0.5c-0.5-0.2-0.8-0.2-1.2,0.1
		c-0.3,0.1-1,0.1-1.6,0.1c0,0.2-0.1,0.3-0.2,0.3c-0.4,0-0.9,0.4-0.9,0.8c-0.1,0.4-0.9,0.7-1.2,1.5c-0.2,0.7-0.1,1.1,0.2,0.6
		c0.4-0.4,0.8-0.3,0.8,0.1c0,0.4,0.5,0.4,0.3,0.9c0,0,0,0,0,0c0.6,0,1.3-0.1,1.6-0.1c0.4,0,0.8-1.2,0.9-1.3c0.2-0.1,0.6,0.9,1,1.2
		c0.4,0.4,0.5-0.3,0.5-0.7c0-0.3,0.4-0.4,0.7-0.4c0.3,0.1,0.9,0.2,0.9-0.2c0-0.4,0.3-0.2,0.5-0.2c0.2,0,0.3-0.4,0.3-0.4l0.4-0.3
		C38.6,35.2,38.3,35.1,38,35.2z"/>
	<path class="st0" d="M32.5,20.6c-0.4,0.7-1,0.7-0.9,0.9c0.1,0.2,0.8,0.7,0.6,1c-0.2,0.3-0.4,0.1-0.4,0.6c0,0.5-0.8,0.5-1,0.5
		c-0.3,0,0.1,0.5-0.1,0.9c-0.2,0.4-0.2,1.1-0.2,1.5C30.4,26.2,31,26.7,31,27c-0.1,0.3-0.5,0.5-0.4,0.7c0.1,0.2,0.5,0.5,0.6,1.5
		c0.2,0.1,0.3,0.1,0.4,0.2c0.2,0.3,0.7,0.6,1.2,0.6c0.5,0,0.7,0.4,1,0.3c0.2,0,0.9,0.2,0.4,0.6c-0.5,0.4-0.6,1-0.7,1.5
		c-0.1,0.3-0.1,0.8-0.2,1.1c0.5,0,1.3,0.1,1.6-0.1c0.4-0.2,0.7-0.2,1.2-0.1c0.3,0.1,0.8,0.3,1.1,0.5c0-0.1,0.1-0.2,0.2-0.2
		c0.4,0,0.8,0.7,1.1,0.3c0.2-0.4,0.8-0.3,1.1-0.2c0.3,0.2,0.7,0.2,1.1-0.1c0.3-0.3,1.6-0.5,1.9-0.4c0.3,0.1,1,0.4,0.7-0.5
		c-0.3-1,0.6-0.8,0.7-1.1c0.1-0.4,1.2-0.5,1-0.8c-0.2-0.3-1.5-1.1-1.9-1.4c-0.4-0.3-0.4-1.2-0.6-1.5c-0.2-0.4-0.7-0.9-0.1-1
		c0.5-0.1,1.5-0.3,1.9-0.7c0.4-0.4,1.3-0.4,1.5-0.7c0.2-0.2,0.8,0.2,1,0c0.2-0.2,0.3-0.7,0-1c-0.2-0.3-0.4-0.8-0.4-1.5
		c0-0.7-0.2-0.7-0.2-1s-0.1-0.7-0.4-0.9c-0.3-0.2-0.4-0.3-0.1-0.7c0.3-0.4,0.2-1.6,0-1.9c0-0.1,0-0.1,0-0.2c-0.1,0-0.1-0.1-0.2-0.2
		c-0.1-0.4-0.4-0.6-1.1-0.6c-0.7,0,0.4-0.7,0.2-1.1c-0.3-0.4-1,0.7-1.6,0.4c-0.7-0.2-1.5,0.8-2.1,1.2c-0.6,0.4-1.4-0.1-1-0.7
		c0.4-0.6,0-0.6-0.7-0.3c-0.7,0.2-1.4-0.1-1.4-0.7c0-0.2,0-0.3-0.1-0.4c-0.3,0-0.6,0.1-0.7,0c-0.3-0.1-1-0.1-1.7-0.2
		c0.2,0.3,0.4,0.6,0.3,0.9c-0.2,0.5,0.1,0.9,0.5,1.6c0.4,0.7-0.8,0.3-0.8,0.7c0,0.4-1,0-1.4-0.2c-0.3-0.2-1.4-0.1-1.4,0.2
		c0,0.1,0,0.3-0.1,0.4C32.6,19.9,32.7,20.4,32.5,20.6z"/>
	<path class="st0" d="M33.7,30.4c-0.2,0-0.4-0.3-1-0.3c-0.5,0-0.9-0.2-1.2-0.6c-0.2-0.3-1.5-0.4-1.9-0.3c-0.4,0.1-0.5-0.7-0.9-0.6
		c-0.4,0.1-0.5-0.5-0.5-0.9c0-0.3-0.4,0.2-0.8,0.4c-0.4,0.2-0.5-0.4-0.5-0.6c0-0.2-0.8-0.5-1.1-0.7c-0.4-0.2-0.8-0.9-0.9-0.6
		c-0.2,0.3-0.6-0.4-0.7-0.7c0-0.2-0.2-0.1-0.2-0.2c-0.1,0-0.3,0-0.4,0c-0.7,0-1.2,0.5-1.1,1.6c0.1,1.1-0.8,1.2-1.9,1.3
		c-1.1,0.1-0.7,0.9-1.2,1.3c-0.5,0.4-2.1-0.2-2.3-0.8c-0.2-0.6-1.7,0-1.1,0.7c0.6,0.7,0.6,1.7,0.2,2c-0.4,0.3-1.1-0.4-1.6-0.1
		c-0.5,0.4-0.5-0.3-1.1-0.5c-0.6-0.2-0.8,0.3-1.8,0.2c-0.9-0.1-1.5,0.5-1.1,0.9c0.4,0.4-0.1,0.8,0.2,1.1c0.3,0.4,1.5,0.3,2.4,0.8
		c0.9,0.5,1.1,0.1,1.6,0.4c0.5,0.4,0.6,0.1,0.6,0.8c0,0.7,0.5,1.3,1.4,1.6c0.9,0.2,0.2,0.8,0.5,1.4c0.3,0.6-0.4,1.5-0.3,2.2
		c0.1,0.7-0.4,3.1-0.9,3.3c0,0-0.1,0-0.1,0c0.4,0.2,0.8,0.4,1,0.5c0.4,0.3,1.3,0.5,1.8,0.9c0.5,0.3,1.5,0.3,1.5-0.1s0.5-0.1,0.9,0.2
		c0.3,0.3,1.6,0.4,2.2,0.5c0.5,0.1,1.2,0,1.9,0.1c0-0.1-0.1-0.3-0.1-0.5c-0.3-1.1,0.6-1.7,1.5-1.8c0.9-0.1,2.8,0.4,3.4,0.7
		c0.5,0.3,1.2,0.2,2.1-0.7c0.5-0.5,0.8-0.7,1.1-0.7c0-0.2,0.1-0.4,0.2-0.6c0.1-0.3-0.4-0.2-0.9-0.3c-0.4,0-0.7-0.4-0.4-0.9
		c0.3-0.4-0.2-0.5-0.5-0.9c-0.3-0.4,0.1-0.3,0.4-0.4c0.2-0.1,0.6-0.6,0.4-0.7c-0.2-0.1-0.4-0.4-0.2-0.9c0.2-0.5-0.3-0.5-0.3-0.9
		c0-0.4-0.4-0.5-0.8-0.1c-0.4,0.4-0.5,0.1-0.2-0.6c0.2-0.7,1.1-1.1,1.2-1.5c0.1-0.4,0.6-0.8,0.9-0.8c0.4,0,0.3-0.9,0.4-1.4
		c0.1-0.5,0.2-1.1,0.7-1.5C34.6,30.5,34,30.3,33.7,30.4z M36.6,44.2c-0.3,0-0.4,0.5-1.1,1c-0.8,0.5,0,2.5,0.8,2.4
		C37,47.5,36.9,44.2,36.6,44.2z"/>
	<path class="st0" d="M25.2,45.5c-0.7,0-1.4,0.1-1.9-0.1c-0.6-0.1-1.8-0.2-2.2-0.5c-0.3-0.3-0.9-0.6-0.9-0.2s-0.9,0.5-1.5,0.1
		c-0.5-0.3-1.4-0.6-1.8-0.9c-0.2-0.1-0.6-0.3-1-0.5c-0.6,0.1-2.1-0.5-3.2-0.3c-1.1,0.1-4.7-0.2-6.1-0.1c-1.4,0.1-1.5-0.6-2.2-0.6
		c-0.8,0-0.4,0.9-1.5,0.9c-1.1,0-1.2,0.7-0.4,1.3c0.4,0.4,0.4,1.1,0.3,1.8c0.2,0,0.4-0.1,0.5-0.2C3.8,46,4.2,46,4.2,46.4
		c0,0.4,0.7,0.3,1.1,0.3c0.4,0,0.3,0.3,0.7,0c0.5-0.3,1.1-0.2,1.1,0.2c0,0.4,1,0.2,0.5,0.7c-0.5,0.5-1.2,0.7-1.2,1.1
		c0,0.4,0.6,1.3,0.1,1.7c-0.5,0.5,0.1,1.3-0.3,1.3c-0.5,0-1,0.2-0.5,0.7c0.5,0.5,0.9,1,0.5,1c-0.4,0-0.7,0.8-0.5,1
		c0.2,0.2,1.1,0.8,0.4,0.9c-0.7,0.1-0.7,0.7-0.7,1.1c0,0.1,0.1,0.4,0.3,0.6c0.3-0.1,0.7-0.1,1,0.1c0.8,0.4,1.2,2.2,2.2,2.1
		c0.4-0.1,0.2-0.4,0.4-0.6c0.2-0.2,0.6-0.1,1.1-0.1c0.4,0,0.7-0.6,1.7-0.7c1,0,1.7-0.1,2.3-0.1c0.7,0,1.2-0.2,1.3-0.7
		c0.2-0.5,0.7-0.9,1.4-1c0.7-0.1,0.6-0.9,0.7-1.3c0.1-0.4,1.3-1.1,1.4-1.4c0.1-0.3-0.7-1.6,0-2.7c0.7-1.1,1.5-1.2,1.5-1.8
		c0-0.6,0.8-0.8,1.7-0.9c0.9-0.1,1.2-0.7,2-1.1C25.1,46.8,25.4,46.3,25.2,45.5z M25.4,51.4c-0.1-0.9-2,0.3-1.6,0.5
		C24.6,52.5,25.5,52.4,25.4,51.4z"/>
	<path class="st0" d="M67.1,46.9c-0.4,0-1,0.2-0.9,0.4c0.1,0.3-0.3,0.4-0.7,0.4c0,0-1.5-0.1-2-0.3c-0.3-0.2-1.8-0.1-2.5,0
		c0,0,0,0.1,0,0.1c-0.2,0.2-1.5,0.9-1.7,0.8c-0.2-0.1-0.4,0.4-0.9,0.5c-0.5,0.1-1.2,0-1.3,0.2c0,0.2-0.4,0.8-0.7,1.1
		c-0.3,0.3,0,0.6-0.4,0.7c-0.3,0.1-0.4,0.6-0.5,1c0,0,0.1,0,0.1,0c0.6,0.2,1.1,0.9,1,1.6c-0.1,0.7,0.9,0.9,1.3,0.4
		c0.4-0.5,1.7,0.3,1.7,0.6c0,0.3-1.2-0.4-2,0.2c-0.7,0.5,0.5,1,0.4,1.5c-0.2,0.5,0.3,1.3,1,1.3c0.6,0,1.3,1,1.7,0.8
		c0.4-0.2-0.5-1.6-0.3-1.8c0.1-0.2,0.9,0.4,1.3-0.1c0.4-0.4-0.3-0.8-0.8-0.7c-0.6,0,0-0.8,0.7-0.4c0.7,0.4,1-0.1,1.3-0.2
		c0.3-0.1,0.4-1.2-0.6-1.5c-1-0.3-0.9,0.7-1.5,0.1c-0.7-0.7,0.6-0.4,0.6-1c0-0.6-1-1.4-1.5-2.1c-0.5-0.7,0.7-1,0.9-0.5
		c0.3,0.5,1,0.4,1.5,0.2c0.5-0.2-0.5-1.1,0.4-1.4c0.8-0.3,0.8,0.2,1.1,0.4c0.3,0.1,0.5-0.7,1.4-0.7c0.5,0,0.9,0.3,1.2,0.6
		c0.2-0.3,0.4-0.4,0.4-0.6c0-0.3,0.5-0.4,0.5-0.9C67.3,47.4,67.2,47.1,67.1,46.9z M65.6,60.6c-0.4-0.2-2.4,0.2-2.9-0.3
		c-0.5-0.5-1.6,0.4-1.1,0.5c0.7,0.1,1.6,0.7,2.7,0.7c1.1,0,2.5-0.5,2.5-0.8C66.7,60.4,66,60.8,65.6,60.6z"/>
	<path class="st0" d="M7.4,17.9c-0.2-0.2-0.4-0.4-0.6-0.5c-0.7-0.8-1-0.2-1.1,0.3c-0.1,0.5-0.7-0.2-1.1-0.2
		c-0.4-0.1,0.1-0.9,0.4-1.1c0.2-0.1,0.4-0.5,0.5-1c-0.1,0-0.2,0-0.2,0C4.5,15,3.4,15,3.4,15.7c0,0.7,0.8,0.4,0.9,0.9
		c0,0.4-0.9,0.3-1.5,0.8c-0.6,0.4-1.3-0.3-2,0C0.2,17.6,1.5,18,1,18.7c-0.5,0.7,0,0.6,0.8,1.3c0.8,0.7-0.5,0.8-0.5,1.5
		c0,0.7-1,0.7-1.2,1.2C-0.1,23.2,1,24.2,2,24.2c0.7,0,2.3-0.4,3.2-1.3c0.9-0.9,1.4,0,2.3-0.5c0.8-0.4,0.3-3.6,0-4.3
		C7.3,18.1,7.3,18,7.4,17.9z"/>
	<g>
		<g>
			<path class="st0" d="M7.7,15c-0.7-0.7-1.6,0.4-2.3,0.4c-0.1,0.5-0.3,0.9-0.5,1c-0.3,0.2-0.8,1-0.4,1.1c0.4,0.1,1.1,0.7,1.1,0.2
				c0.1-0.5,0.4-1.1,1.1-0.3c0.2,0.2,0.4,0.4,0.6,0.5c0.1-0.4,1-0.4,1.4-0.9C9.3,16.5,8.5,15.7,7.7,15z M22.6,21.7
				c0.1-0.8-1.7-1.4-1.9-0.9c-0.2,0.4-0.6,0.4-0.9-0.1c-0.3-0.5,0.3-0.9,0-1c-0.3-0.1-0.7-0.7-0.6-1c0.1-0.3-0.5-2-1.4-2.2
				c-0.9-0.2-1.1-1.5-1.2-2.2c-0.2-0.7-0.8-0.3-1.2-0.9c-0.5-0.6-1.2-0.3-1.7-0.3c-0.4,0,0-0.8,0.7-1.2c0.7-0.4,1.4-2.7,1.4-3.2
				c0-0.5-2.8-0.4-3.4-0.2c-0.5,0.3-1.1-0.4-0.6-0.6c0.5-0.2,1.4-1.1,1.4-1.5c-0.1-0.4,0.7-0.7,0.3-1.1c-0.4-0.4-0.5,0.5-0.8,0.7
				c-0.4,0.3-1.1,0.2-2,0C9.7,5.8,9.4,7,9.4,7.5c0,0.5-1,0.8-0.8,1.2c0.2,0.4-0.2,0.8-0.5,0.5C7.9,9,7.6,8.4,7,8.9
				c-0.5,0.4,0.6,1,1.3,1.1c0.7,0.1-0.5,0.6-0.7,1.4c-0.1,0.8,0.9,0.4,1,1c0.1,0.5-1.5,0.6-1.5,1.1c0,0.5,0.9-0.2,1.3-0.5
				c0.4-0.2-0.2,1.3,0.8,1.1c1-0.2,0.7-1.5,1.1-1.4c0.4,0.1-0.2,0.7,0.1,1.3c0.3,0.6-0.7,1.4-0.7,1.8c0.1,0.4,2,0.4,2.6-0.2
				c0.6-0.7,0.9,0.1,0.5,0.5c-0.4,0.5-0.2,0.9,0.3,1.1c0.5,0.2,0.7,0.2,0.5,0.7c-0.2,0.4,0,1.2-0.2,1.7c-0.1,0.4-1.8,0.4-1.9,0.1
				c-0.1-0.3-0.8-0.1-0.6,0.3c0.2,0.4-0.6,0.8-0.5,1.1c0.1,0.4,1.1,0.3,1.1,0.7c0,0.4-0.7,0.9-1.8,1.2c-1,0.3,0.2,1.1,0.7,0.8
				c0.5-0.4,0.4,0.2,1.1,0.2c0.7,0,1.1,0.6,1.9,0.3c0.8-0.3,0.8,0,0.2,0.5c-0.6,0.5-1.5,0-2,0.3c-0.5,0.3-2.7,2.4-2.3,2.9
				c0.2,0.3,0.6-0.4,1.4-0.8c0.8-0.3,0.9,0.2,1.4,0.3c0.4,0.1,0.5-0.9,0.8-0.8c0.4,0.1,0.7-0.3,1.3-0.2c0.7,0.1,1.1-0.1,1.4-0.4
				c0.3-0.3,1.2,0.5,1.5,0.4c0.3-0.2,1.5-0.4,2.1-0.4c0.6,0,2.1-0.7,2.5-1.1c0.4-0.4-0.2-0.5-0.8-0.4c-0.5,0.1-0.4-0.5,0.1-1.1
				C21.6,22.9,22.5,22.5,22.6,21.7z M6.3,8.1C7,8,7.9,6.8,7.5,6.4C7.2,6.1,5.7,8.1,6.3,8.1z M16.8,2.2c0.5-0.5,1-2.2,0.3-2
				C16.4,0.3,16.6,2.4,16.8,2.2z"/>
		</g>
		<g>
			<path class="st0" d="M7.7,15c-0.7-0.7-1.6,0.4-2.3,0.4c-0.1,0.5-0.3,0.9-0.5,1c-0.3,0.2-0.8,1-0.4,1.1c0.4,0.1,1.1,0.7,1.1,0.2
				c0.1-0.5,0.4-1.1,1.1-0.3c0.2,0.2,0.4,0.4,0.6,0.5c0.1-0.4,1-0.4,1.4-0.9C9.3,16.5,8.5,15.7,7.7,15z M22.6,21.7
				c0.1-0.8-1.7-1.4-1.9-0.9c-0.2,0.4-0.6,0.4-0.9-0.1c-0.3-0.5,0.3-0.9,0-1c-0.3-0.1-0.7-0.7-0.6-1c0.1-0.3-0.5-2-1.4-2.2
				c-0.9-0.2-1.1-1.5-1.2-2.2c-0.2-0.7-0.8-0.3-1.2-0.9c-0.5-0.6-1.2-0.3-1.7-0.3c-0.4,0,0-0.8,0.7-1.2c0.7-0.4,1.4-2.7,1.4-3.2
				c0-0.5-2.8-0.4-3.4-0.2c-0.5,0.3-1.1-0.4-0.6-0.6c0.5-0.2,1.4-1.1,1.4-1.5c-0.1-0.4,0.7-0.7,0.3-1.1c-0.4-0.4-0.5,0.5-0.8,0.7
				c-0.4,0.3-1.1,0.2-2,0C9.7,5.8,9.4,7,9.4,7.5c0,0.5-1,0.8-0.8,1.2c0.2,0.4-0.2,0.8-0.5,0.5C7.9,9,7.6,8.4,7,8.9
				c-0.5,0.4,0.6,1,1.3,1.1c0.7,0.1-0.5,0.6-0.7,1.4c-0.1,0.8,0.9,0.4,1,1c0.1,0.5-1.5,0.6-1.5,1.1c0,0.5,0.9-0.2,1.3-0.5
				c0.4-0.2-0.2,1.3,0.8,1.1c1-0.2,0.7-1.5,1.1-1.4c0.4,0.1-0.2,0.7,0.1,1.3c0.3,0.6-0.7,1.4-0.7,1.8c0.1,0.4,2,0.4,2.6-0.2
				c0.6-0.7,0.9,0.1,0.5,0.5c-0.4,0.5-0.2,0.9,0.3,1.1c0.5,0.2,0.7,0.2,0.5,0.7c-0.2,0.4,0,1.2-0.2,1.7c-0.1,0.4-1.8,0.4-1.9,0.1
				c-0.1-0.3-0.8-0.1-0.6,0.3c0.2,0.4-0.6,0.8-0.5,1.1c0.1,0.4,1.1,0.3,1.1,0.7c0,0.4-0.7,0.9-1.8,1.2c-1,0.3,0.2,1.1,0.7,0.8
				c0.5-0.4,0.4,0.2,1.1,0.2c0.7,0,1.1,0.6,1.9,0.3c0.8-0.3,0.8,0,0.2,0.5c-0.6,0.5-1.5,0-2,0.3c-0.5,0.3-2.7,2.4-2.3,2.9
				c0.2,0.3,0.6-0.4,1.4-0.8c0.8-0.3,0.9,0.2,1.4,0.3c0.4,0.1,0.5-0.9,0.8-0.8c0.4,0.1,0.7-0.3,1.3-0.2c0.7,0.1,1.1-0.1,1.4-0.4
				c0.3-0.3,1.2,0.5,1.5,0.4c0.3-0.2,1.5-0.4,2.1-0.4c0.6,0,2.1-0.7,2.5-1.1c0.4-0.4-0.2-0.5-0.8-0.4c-0.5,0.1-0.4-0.5,0.1-1.1
				C21.6,22.9,22.5,22.5,22.6,21.7z M6.3,8.1C7,8,7.9,6.8,7.5,6.4C7.2,6.1,5.7,8.1,6.3,8.1z M16.8,2.2c0.5-0.5,1-2.2,0.3-2
				C16.4,0.3,16.6,2.4,16.8,2.2z"/>
		</g>
	</g>
	<path class="st0" d="M38.5,11.2c-0.3-0.1-0.4-1-0.1-1.3c0.3-0.3,0.5-1.3,0.2-1.6c-0.3-0.3-1.2,0-1.3,0.7c-0.1,0.7-0.9,0.4-1.1,0.6
		c-0.2,0.2,0.4,0.5,0.1,0.8c-0.4,0.3-0.5-0.5-1.1-0.5c-0.6-0.1-0.6,0.9-0.9,1.3c-0.3,0.5-0.1,1.4,0,2.1c0.1,0.7,0.9,1.1,0.7,1.6
		c-0.1,0.3,0.1,0.5,0.3,0.8c0.7,0,1.4,0.1,1.7,0.2c0.1,0,0.4,0,0.7,0c-0.2-0.4-0.8-0.7-0.7-1c0.1-0.4,0.6-0.1,0.9,0.2
		c0.4,0.3,1.2,0.4,1.3,0c0.1-0.3-0.1-1.4-0.7-1.1c-0.5,0.3-0.7,0.2-0.8-0.1c-0.2-0.3,0.4-0.7,0.5-1.1c0.1-0.4,1-0.3,1.2-0.6
		C39.5,11.7,38.7,11.4,38.5,11.2z M42.6,12.9c-0.2-0.1-0.4,0.4-0.6,0.4c-0.2,0.1-0.5-1-0.6-0.4c-0.1,0.6-0.7-0.2-1.2,0.5
		c-0.5,0.8,0.3,1.4,0.7,1.7c0.4,0.2,0,0.6-0.5,0.5c-0.5-0.1-0.2,0.7,0.5,0.8c0.7,0.1,1.4-1.2,1.3-1.5C42,14.5,42.8,13,42.6,12.9z"/>
	<path class="st0" d="M69.5,4.4c0.2-0.5,0.8-0.6,0.4-1.2c-0.1,0.1-0.2,0.1-0.4,0.2C68.7,3.6,67,2.9,66,3.1c-1,0.2-3,0.2-3.4,0.7
		c-0.5,0.5-1.6,0.6-1.1,1.1c0.5,0.4,0,0.7,0.4,1.2c0.4,0.5,0.6,0.7,1.1,0.6c0.5-0.1,0.9,0.2,0.4,0.7c0,0,0,0,0,0
		c0.9-0.1,1.8-0.1,2,0c0.2,0.2,1.5,1.2,1.8,1.1c0.2-0.1,1.1,0,1.8,0.1C68.8,8.3,68.8,8.1,69,8c0.2-0.2,0.8-0.2,0.5-0.6
		c-0.3-0.4-0.4-0.5-0.4-1c0-0.5-0.2-0.7-0.1-1.1C69,5,69.3,5,69.5,4.4z M59.9,5.8c-1,0.3-1.1,1.6-0.7,1.6c0.5,0,1.6-0.9,1.9-1.2
		C61.4,5.8,60.9,5.5,59.9,5.8z M60.8,5c0.2-0.4-1.6-0.2-1.2,0.1C59.9,5.4,60.5,5.4,60.8,5z"/>
	<path class="st0" d="M43,38.3c0.4-0.2,0.9-0.2,1.2-0.1c0.2,0.1,0.3,0.3,0.3,0.5c0.4-0.1,1.1-0.2,1.3-0.2c0.3-0.1,1.1,0.3,1.1,0
		c0.1-0.2,0.3-0.8,0.7-0.8c0.3,0,0.1-0.9,0.4-0.9c0.3,0,1.1-0.8,1.1-0.8s-0.3-0.7-0.4-0.7c-0.1,0-0.5,0.4-1.3,0.4
		c-0.7,0-1.3,0.6-1.6,0.6s-1.3-0.3-2-0.4c-0.2,0-0.5,0-0.7-0.1C43,36.4,42.9,37.4,43,38.3z"/>
	<path class="st0" d="M46.1,54.8c-1.1,0.2-1.6,0.3-2.2,0c-0.7-0.3-1.7,0.3-1.5,0.7c0.1,0.3,0.5,0.7,1.9,1c1.4,0.4,1.5,1.3,2.1,1.3
		c0.6,0,0.6-0.5,0.5-1.2c-0.1-0.7,0.7-1.6,0.8-1.7C47.6,54.8,47.2,54.6,46.1,54.8z M35.6,48.7c-0.6,0.5-1.1-0.1-1.3,0.3
		c-0.3,0.5,0.9,1.3,0.7,2.4c-0.2,1.1,0.1,2.4,0.8,1.8c0.6-0.6,0.9-0.3,1.3-0.8c0.4-0.5,0.1-2.2,0.3-3C37.5,48.5,36.2,48.2,35.6,48.7
		z M48.9,47.8c-0.7-0.4-0.2-1.1-1.4-1.1c-1.1,0.1-2.4-1.3-2.8-2.9c-0.4-1.6-2.1-1.7-2.6-2.6c-0.4-0.9,0.4-1.1,0-1.8
		c-0.2-0.4,0.3-0.8,0.8-1c0-0.9,0-1.8,0.1-2.4c-0.4,0-0.8-0.1-0.9-0.2c-0.2-0.1-0.2-0.8-0.4-0.8c-0.1,0-1.3,0-1.5,0.2
		c-0.2,0.2-0.8,0.6-1.1,0.4c-0.1,0-0.1-0.1-0.2-0.1l-0.4,0.3c0,0-0.1,0.4-0.3,0.4c-0.2,0-0.5-0.2-0.5,0.2c0,0.4-0.6,0.3-0.9,0.2
		c-0.3-0.1-0.7,0.1-0.7,0.4c0,0.3-0.1,1-0.5,0.7c-0.4-0.4-0.9-1.4-1-1.2c-0.2,0.1-0.5,1.3-0.9,1.3c-0.2,0-1,0.1-1.6,0.1
		c-0.1,0.5,0,0.7,0.2,0.9c0.2,0.1-0.1,0.6-0.4,0.7c-0.2,0.1-0.7,0-0.4,0.4c0.3,0.4,0.8,0.5,0.5,0.9c-0.3,0.4,0,0.9,0.4,0.9
		c0.4,0,1,0,0.9,0.3c-0.1,0.2-0.2,0.4-0.2,0.6c0.3-0.1,0.6-0.1,0.9-0.3c0.6-0.3,0.3-0.8,1.3-1.1c1-0.3,2.2,0.5,2.6,1.1
		c0.4,0.6,0.5,0.6,0.6,1.1c0.1,0.5,0.4,1.4,1.7,2.2c1.3,0.8,1.8,1.8,2.5,2.1c0.7,0.4,1.4,0.3,1.8,0.8c0.4,0.5,0.9,0.8,1.6,1.1
		c0.7,0.3,0.7,1,1.3,1.1c0.6,0.1,0.2,0.6,0.6,1.1c0.4,0.5,0.5,1.4,0.1,2c-0.4,0.5-0.2,1.5,0.1,1.5c0.3,0,0.8-1,0.9-1.5
		c0.1-0.5,0.6-0.5,1.1-1.1c0.4-0.6-0.7-0.7-0.8-1.4c-0.2-0.7,0.8-1.4,1.8-0.8c1,0.6,1.3,1,1.4,0.1C52.6,49.5,49.6,48.2,48.9,47.8z"
		/>
	<path class="st0" d="M53.3,43.3c-0.4,0.5-0.7,1.2-0.7,1.4c0,0.1,0,0.3-0.1,0.6c0.5,0.4,1,0.8,1.3,1c0,0,0.1,0,0.1,0.1
		c0.1-0.6,0.5-1.2,0.8-1.3C54.4,44.5,53.7,43.7,53.3,43.3z"/>
	<path class="st0" d="M59.8,42.9c-0.4-0.4-0.4-1,0-1.3c0.4-0.2,0-0.6,0-1c0-0.4-1.7-0.5-2-0.6c-0.3-0.1,0.2-1.1-0.2-1.1
		c-0.4,0-0.6-0.3-0.6-0.7c0-0.3-0.7-0.9-0.7-1.1c0,0,0-0.1,0.1-0.1c-0.3,0-0.4-0.1-0.5-0.1C55.5,37,55,36.8,55,36.8
		s-1.1,0.4-1.9,0.6c0.1,0.5,0.2,1,0.5,1.1c0.6,0.2,0.4,0.8,0.6,1.3c0.2,0.5,0.1,2.8-0.1,2.8c-0.1,0-0.4,0.3-0.7,0.7
		c0.4,0.4,1,1.1,1.4,1.6c0,0,0,0,0.1,0c0.4,0,1.7,1,1.7,1s1.9-0.4,3.2-0.6c0-0.2,0.1-0.4,0-0.6c0-0.2,0.2-0.7,0.6-0.7
		C60.7,44.1,60.2,43.3,59.8,42.9z"/>
</g>
</svg>
