<svg xmlns="http://www.w3.org/2000/svg" width="512pt" height="512pt" viewBox="-16 0 512 512.00102" fill="#fff">
    <path d="M61.16 234.55h75.836c5.524 0 10-4.476 10-10 0-5.519-4.476-10-10-10H61.16c-5.523 0-10 4.481-10 10 0 5.524 4.477 10 10 10zm0 0M61.16 282.555h82.504c5.52 0 10-4.48 10-10 0-5.524-4.48-10-10-10H61.16c-5.523 0-10 4.476-10 10 0 5.52 4.477 10 10 10zm0 0M184.918 282.55a10.03 10.03 0 0 0 7.07-2.929c1.86-1.86 2.93-4.43 2.93-7.07 0-2.63-1.07-5.211-2.93-7.07s-4.441-2.93-7.07-2.93a10.08 10.08 0 0 0-7.07 2.93 10.03 10.03 0 0 0-2.93 7.07c0 2.64 1.059 5.21 2.93 7.07a10.01 10.01 0 0 0 7.07 2.93zm0 0M278.035 218.008c48.527 0 88.004-39.477 88.004-88.004C366.04 81.48 326.562 42 278.035 42c-48.523 0-88.004 39.48-88.004 88.004 0 48.527 39.48 88.004 88.004 88.004zm0-156.004c37.496 0 68.004 30.504 68.004 68s-30.508 68.004-68.004 68.004-68-30.508-68-68.004 30.504-68 68-68zm0 0"/>
    <path d="M470.11 274.125l-12.09-12.09v-136.05c0-27.57-22.434-50.005-50.004-50.005h-11.743C375.723 31.188 330.457 0 278.035 0c-52.418 0-97.687 31.188-118.234 75.98H50.004C22.43 75.98 0 98.414 0 125.984v252.008c0 27.574 22.43 50.004 50.004 50.004h128.969v24.024c-27.125.523-49.028 22.734-49.028 49.98 0 5.523 4.477 10 10 10H318c5.523 0 10-4.477 10-10 0-27.246-21.902-49.453-49.023-49.98v-24.024h129.039c27.574 0 50.004-22.43 50.004-50.004v-48.12a33.802 33.802 0 0 0 12.09-7.79c13.218-13.223 13.218-34.734 0-47.957zm-62.094-178.14c16.543 0 30.004 13.456 30.004 30v116.05l-47.282-47.281c11.004-19.074 17.305-41.188 17.305-64.75 0-11.766-1.582-23.172-4.527-34.02zM278.036 20c60.655 0 110.003 49.348 110.003 110.004s-49.348 110.004-110.004 110.004-110.004-49.348-110.004-110.004S217.38 20 278.035 20zM50.003 95.984h102.555a129.673 129.673 0 0 0-4.528 34.02c0 12.687 1.836 24.945 5.239 36.547H61.16c-5.523 0-10 4.476-10 10 0 5.52 4.477 10 10 10h99.824c21.07 43.437 65.621 73.46 117.051 73.46 23.559 0 45.672-6.3 64.746-17.3l79.371 79.371c4.446 4.445 9.91 7.5 15.868 8.957v8.953H20V125.984c0-16.543 13.46-30 30.004-30zM306.289 492H151.66c4.125-11.645 15.25-20.004 28.29-20.004h98.046c13.04 0 24.164 8.36 28.293 20.004zm-47.312-40.004h-60.004v-24h60.004zm149.039-44H50.004C33.46 407.996 20 394.536 20 377.992v-18h418.02v18c0 16.543-13.461 30.004-30.004 30.004zm47.949-100.059c-5.422 5.426-14.25 5.422-19.672 0l-76.738-76.742a130.768 130.768 0 0 0 19.668-19.668l76.742 76.743c5.422 5.421 5.422 14.246 0 19.668zm0 0"/>
    <path d="M278.035 105.008c13.785 0 25 11.215 25 24.996 0 5.523 4.477 10 10 10 5.524 0 10-4.477 10-10 0-24.813-20.187-44.996-45-44.996-5.523 0-10 4.48-10 10 0 5.523 4.477 10 10 10zm0 0"/>
</svg>
